<?xml version="1.0" encoding="UTF-8" standalone="no"?>
<!DOCTYPE svg PUBLIC "-//W3C//DTD SVG 20010904//EN"
              "http://www.w3.org/TR/2001/REC-SVG-20010904/DTD/svg10.dtd">

<svg xmlns="http://www.w3.org/2000/svg"
     width="6.4853in" height="6.41586in"
     viewBox="0 0 467 462">
  <path id="Unnamed #10"
        fill="none" stroke="black" stroke-width="1"
        d="M 141.00,229.00
           C 141.00,229.00 232.00,416.00 232.00,416.00M 187.00,135.00
           C 187.00,135.00 326.00,418.00 326.00,418.00M 231.00,416.00
           C 231.00,416.00 323.00,227.00 323.00,227.00M 139.00,416.00
           C 139.00,416.00 280.00,136.00 280.00,136.00M 93.00,322.00
           C 93.00,322.00 372.00,322.00 372.00,322.00M 139.00,230.00
           C 139.00,230.00 326.00,229.00 326.00,229.00M 234.00,44.00
           C 234.00,44.00 420.00,418.00 420.00,418.00M 421.00,419.00
           C 421.00,419.00 43.00,417.00 43.00,417.00M 235.00,44.00
           C 235.00,44.00 43.00,420.00 43.00,420.00" />
</svg>
